HIERARCHY
ROOT Hips
{
    OFFSET 0.000000 0.000000 0.000000
    CHANNELS 6 Xposition Yposition Zposition Zrotation Xrotation Yrotation
    JOINT Spine
    {
        OFFSET -0.000000 8.349382 0.000000
        CHANNELS 3 Zrotation Xrotation Yrotation
        JOINT Spine1
        {
            OFFSET -0.000000 23.269058 0.000000
            CHANNELS 3 Zrotation Xrotation Yrotation
            JOINT Neck
            {
                OFFSET -0.000000 23.173496 2.106681
                CHANNELS 3 Zrotation Xrotation Yrotation
                JOINT Head
                {
                    OFFSET -0.000000 14.255042 -2.036435
                    CHANNELS 3 Zrotation Xrotation Yrotation
                    End Site
                    {
                        OFFSET -0.000000 25.455433 0.000000
                    }
                }
            }
            JOINT LeftShoulder
            {
                OFFSET 3.917082 21.531742 0.000256
                CHANNELS 3 Zrotation Xrotation Yrotation
                JOINT LeftArm
                {
                    OFFSET 10.728225 0.000000 0.000000
                    CHANNELS 3 Zrotation Xrotation Yrotation
                    JOINT LeftForeArm
                    {
                        OFFSET 30.046112 0.000000 0.000000
                        CHANNELS 3 Zrotation Xrotation Yrotation
                        JOINT LeftHand
                        {
                            OFFSET 29.023712 0.000000 0.000000
                            CHANNELS 3 Zrotation Xrotation Yrotation
                            End Site
                            {
                                OFFSET 15.273261 0.000000 0.000000
                            }
                        }
                    }
                }
            }
            JOINT RightShoulder
            {
                OFFSET -3.920664 21.531742 0.000256
                CHANNELS 3 Zrotation Xrotation Yrotation
                JOINT RightArm
                {
                    OFFSET -10.728225 0.000000 0.000000
                    CHANNELS 3 Zrotation Xrotation Yrotation
                    JOINT RightForeArm
                    {
                        OFFSET -30.046112 0.000000 0.000000
                        CHANNELS 3 Zrotation Xrotation Yrotation
                        JOINT RightHand
                        {
                            OFFSET -29.023712 0.000000 0.000000
                            CHANNELS 3 Zrotation Xrotation Yrotation
                            End Site
                            {
                                OFFSET -15.273261 0.000000 0.000000
                            }
                        }
                    }
                }
            }
        }
    }
    JOINT LeftUpLeg
    {
        OFFSET 10.182174 0.000000 0.000000
        CHANNELS 3 Zrotation Xrotation Yrotation
        JOINT LeftLeg
        {
            OFFSET -0.000000 -49.689274 0.000000
            CHANNELS 3 Zrotation Xrotation Yrotation
            JOINT LeftFoot
            {
                OFFSET -0.000000 -39.155319 0.000000
                CHANNELS 3 Zrotation Xrotation Yrotation
                JOINT LeftToeBase
                {
                    OFFSET -0.000000 -6.618412 15.273261
                    CHANNELS 3 Zrotation Xrotation Yrotation
                    End Site
                    {
                        OFFSET -0.000000 0.000000 4.072869
                    }
                }
            }
        }
    }
    JOINT RightUpLeg
    {
        OFFSET -10.182174 0.000000 0.000000
        CHANNELS 3 Zrotation Xrotation Yrotation
        JOINT RightLeg
        {
            OFFSET -0.000000 -49.689274 0.000000
            CHANNELS 3 Zrotation Xrotation Yrotation
            JOINT RightFoot
            {
                OFFSET -0.000000 -39.155319 0.000000
                CHANNELS 3 Zrotation Xrotation Yrotation
                JOINT RightToeBase
                {
                    OFFSET -0.000000 -6.618412 15.273261
                    CHANNELS 3 Zrotation Xrotation Yrotation
                    End Site
                    {
                        OFFSET -0.000000 0.000000 4.072869
                    }
                }
            }
        }
    }
}
MOTION
Frames:    13
Frame Time:    0.008333
32.335125    97.477631    12.375823    -1.100891    0.111499    100.735855    -0.569601    -0.972581    0.529205    1.199696    1.037177    0.523174    2.500082    10.903048    10.930502    -5.260312    -3.810166    10.337826    14.176328    -3.348902    -19.822733    -17.966587    -2.543399    1.908709    2.603003    -1.581908    -2.147773    -4.707003    -1.499790    -0.812730    -14.658186    3.252495    -19.255957    23.855570    -1.083553    4.104454    -3.966780    -3.346655    4.964952    -0.669949    -3.196756    3.745210    4.543505    4.268122    -6.979162    -4.722402    -1.163234    -5.219771    0.474520    -4.894963    25.285852    0.000000    0.000000    0.000000    -3.115416    2.907582    -2.215524    4.469516    4.040020    -0.104553    -0.671625    -6.761725    -14.298654    0.000000    0.000000    0.000000    
32.337173    97.478127    12.371269    -1.087049    0.103809    100.735336    -0.565532    -0.962474    0.531666    1.210665    1.044064    0.525388    2.503364    10.908465    10.883177    -5.278363    -3.846919    10.283658    14.172681    -3.344833    -19.844513    -17.946396    -2.611080    1.914676    2.521502    -1.618331    -2.137275    -3.986579    -1.536797    -0.992670    -14.665071    3.263388    -19.264994    23.869568    -1.126023    4.117586    -3.953672    -3.346965    4.969748    -0.629567    -3.196118    3.736437    4.551730    4.284241    -6.977044    -4.701083    -1.162210    -5.274582    0.440701    -4.912112    25.307194    0.000000    0.000000    0.000000    -3.107773    2.923656    -2.237390    4.467656    4.038793    -0.080853    -0.660952    -6.758280    -14.302248    0.000000    0.000000    0.000000    
32.344456    97.476151    12.365618    -1.070564    0.100952    100.742592    -0.562139    -0.965251    0.531498    1.209293    1.076836    0.524952    2.438180    11.023541    10.912518    -5.196860    -4.067587    10.324390    14.187160    -3.362626    -19.859972    -17.953606    -2.652848    1.926136    2.559827    -1.576096    -2.142828    -4.624951    -1.496696    -0.780816    -14.650338    3.270524    -19.281878    23.875067    -1.153854    4.132790    -3.945287    -3.348356    4.980813    -0.660241    -3.198387    3.718316    4.560306    4.315084    -6.994863    -4.723482    -1.192581    -5.233312    0.481116    -4.892224    25.299927    0.000000    0.000000    0.000000    -3.107031    2.957350    -2.250753    4.473522    4.016056    -0.049881    -0.754296    -6.690211    -14.280035    0.000000    0.000000    0.000000    
32.346283    97.477386    12.359879    -1.068602    0.099803    100.743095    -0.562061    -0.966386    0.526820    1.216825    1.086028    0.520191    2.428833    10.993417    10.861985    -5.188037    -4.049131    10.273852    14.192176    -3.354426    -19.849564    -17.961067    -2.661582    1.920285    2.512501    -1.608327    -2.148866    -4.004093    -1.527173    -0.975027    -14.653487    3.274742    -19.281338    23.884527    -1.166004    4.141285    -3.947956    -3.336068    4.996631    -0.604868    -3.183767    3.743077    4.558246    4.325993    -6.976441    -4.702495    -1.203824    -5.298771    0.436339    -4.891615    25.310011    0.000000    0.000000    0.000000    -3.105392    2.967013    -2.250823    4.463873    3.998071    -0.062605    -0.640296    -6.734498    -14.309127    0.000000    0.000000    0.000000    
32.346710    97.479103    12.351397    -1.078290    0.103395    100.744514    -0.555254    -0.982379    0.519106    1.204497    1.098246    0.512496    2.395435    10.993659    10.814388    -5.145681    -4.086890    10.231647    14.196544    -3.353051    -19.844448    -17.953201    -2.681852    1.929915    2.485752    -1.598250    -2.162683    -4.015543    -1.518157    -0.946694    -14.658545    3.280917    -19.263546    23.921965    -0.906152    4.117183    -4.035974    -3.457093    5.039950    -0.523180    -3.296560    3.698765    4.543102    4.322441    -6.966898    -4.711452    -1.218318    -5.255713    0.454966    -4.869801    25.299276    0.000000    0.000000    0.000000    -3.112373    2.961821    -2.244570    4.463357    3.992450    -0.089042    -0.654740    -6.723283    -14.299786    0.000000    0.000000    0.000000    
32.361305    97.472450    12.356801    -1.010670    0.109277    100.750366    -0.584469    -0.926472    0.515298    1.250548    1.126139    0.507762    2.376071    10.934634    10.780171    -5.104903    -4.061238    10.203919    14.196188    -3.359786    -19.827257    -17.955845    -2.679459    1.912020    2.467029    -1.575642    -2.135320    -4.086730    -1.492008    -1.057060    -14.667616    3.286683    -19.270588    23.934933    -0.888854    4.123098    -4.028650    -3.482267    4.987504    -0.553189    -3.326381    4.009999    4.561724    4.406094    -6.957089    -4.701575    -1.234335    -5.311157    0.445412    -4.879600    25.290487    0.000000    0.000000    0.000000    -3.095997    3.053629    -2.204648    4.460374    3.963590    -0.053941    -0.666669    -6.745034    -14.377650    0.000000    0.000000    0.000000    
32.360737    97.475571    12.351017    -1.022329    0.109020    100.749733    -0.582089    -0.932778    0.513966    1.244159    1.118007    0.506622    2.380811    10.921231    10.722983    -5.107505    -4.053312    10.143673    14.206531    -3.357709    -19.840300    -17.969748    -2.662966    1.930374    2.458914    -1.566911    -2.155854    -4.115528    -1.482632    -1.059026    -14.654111    3.289339    -19.255634    23.924776    -0.866418    4.111714    -4.019457    -3.465303    4.997680    -0.524144    -3.308434    4.010581    4.554345    4.402057    -6.944810    -4.715130    -1.255497    -5.279477    0.458411    -4.857260    25.283792    0.000000    0.000000    0.000000    -3.096802    3.039529    -2.207197    4.447995    3.964040    -0.072700    -0.669524    -6.723314    -14.356192    0.000000    0.000000    0.000000    
32.364388    97.479156    12.347203    -1.021872    0.106834    100.747803    -0.595275    -0.935720    0.514315    1.274018    1.117586    0.506765    2.375592    10.910850    10.668229    -5.119224    -4.044021    10.084983    14.192812    -3.350177    -19.850424    -17.961449    -2.666542    1.932280    2.437970    -1.538472    -2.152082    -4.210348    -1.453273    -1.072208    -14.647489    3.313536    -19.261160    23.911896    -0.857550    4.132789    -4.019252    -3.438601    5.000873    -0.497509    -3.280736    4.020862    4.548141    4.408618    -6.925782    -4.682886    -1.255157    -5.331933    0.421483    -4.862548    25.283278    0.000000    0.000000    0.000000    -3.093433    3.040816    -2.177519    4.445530    3.964573    -0.059380    -0.631738    -6.727943    -14.405994    0.000000    0.000000    0.000000    
32.365944    97.482254    12.340459    -1.026711    0.114394    100.745956    -0.593278    -0.942383    0.511178    1.260419    1.124937    0.503818    2.361804    10.893173    10.611487    -5.098313    -4.048800    10.029602    14.202497    -3.348616    -19.849596    -17.965784    -2.637786    1.933106    2.434206    -1.541076    -2.168504    -4.267821    -1.457436    -1.009765    -14.638350    3.311388    -19.254723    23.906885    -0.812432    4.142045    -4.037147    -3.474479    5.027309    -0.439966    -3.312401    3.896807    4.533573    4.411728    -6.935103    -4.679552    -1.261759    -5.325066    0.413977    -4.855239    25.298643    0.000000    0.000000    0.000000    -3.106064    3.033606    -2.146295    4.453471    3.975246    -0.056066    -0.622253    -6.730887    -14.449668    0.000000    0.000000    0.000000    
32.366520    97.484444    12.335995    -1.031532    0.115058    100.743759    -0.593945    -0.943258    0.511737    1.255704    1.119132    0.504535    2.533684    10.813683    10.542701    -5.349920    -3.866830    9.911677    14.207182    -3.339645    -19.858589    -17.961811    -2.616373    1.936618    2.427358    -1.542817    -2.159591    -4.328936    -1.459294    -1.001320    -14.619750    3.318636    -19.257385    23.899323    -0.747420    4.153269    -4.016505    -3.494101    4.995490    -0.572659    -3.339085    3.999904    4.525511    4.407376    -6.923999    -4.691287    -1.268821    -5.279168    0.428773    -4.840995    25.273861    0.000000    0.000000    0.000000    -3.178533    3.024101    -1.814938    4.631535    4.014926    0.124957    -0.763899    -6.762369    -14.968851    0.000000    0.000000    0.000000    
32.367767    97.485283    12.331636    -1.028586    0.117400    100.739510    -0.600244    -0.931588    0.507753    1.267258    1.104628    0.500478    2.503007    10.789415    10.488351    -5.306889    -3.836066    9.864894    14.199234    -3.328111    -19.862492    -17.957098    -2.608636    1.945399    2.424842    -1.534510    -2.148686    -4.377367    -1.450560    -1.007885    -14.613820    3.324365    -19.241785    23.891701    -0.719010    4.160235    -4.049500    -3.536316    5.018639    -0.504912    -3.376221    3.895601    4.515897    4.408434    -6.915641    -4.685008    -1.256505    -5.276507    0.427381    -4.847619    25.274866    0.000000    0.000000    0.000000    -3.180189    3.020439    -1.788705    4.630118    4.031229    0.114158    -0.763821    -6.768583    -14.985612    0.000000    0.000000    0.000000    
32.369053    97.484901    12.327138    -1.020423    0.119160    100.734352    -0.611552    -0.915077    0.515516    1.280666    1.097100    0.508134    2.503379    10.767350    10.423046    -5.293969    -3.822667    9.799147    14.210340    -3.330317    -19.885555    -17.971411    -2.595305    1.948981    2.400870    -1.491749    -2.146748    -4.299908    -1.411910    -0.929055    -14.604986    3.328384    -19.236082    23.887573    -0.686581    4.143929    -4.071600    -3.559809    5.016032    -0.504900    -3.398868    3.902620    4.510815    4.414907    -6.923319    -4.678367    -1.244272    -5.278597    0.435203    -4.862791    25.284565    0.000000    0.000000    0.000000    -3.182604    3.022794    -1.773042    4.631274    4.040724    0.093138    -0.768101    -6.775940    -14.984068    0.000000    0.000000    0.000000    
32.369144    97.485359    12.320150    -1.022797    0.118033    100.733360    -0.616256    -0.906414    0.515525    1.307218    1.078966    0.508097    2.469916    10.744930    10.367131    -5.272645    -3.797947    9.746886    14.175565    -3.323865    -19.890779    -17.955925    -2.582273    1.941142    2.404990    -1.488676    -2.111243    -4.290767    -1.409590    -0.928871    -14.625147    3.336785    -19.249735    23.898689    -0.650143    4.158547    -4.083176    -3.549396    4.988549    -0.560034    -3.391346    4.012266    4.506588    4.404619    -6.935387    -4.685114    -1.225076    -5.265629    0.458086    -4.866400    25.289492    0.000000    0.000000    0.000000    -3.187611    3.013467    -1.764433    4.636616    4.051970    0.118780    -0.898805    -6.764493    -15.028086    0.000000    0.000000    0.000000    
